<svg viewBox="0 0 400 300" fill="none" xmlns="http://www.w3.org/2000/svg"><mask id="a" style="mask-type:alpha" maskUnits="userSpaceOnUse" x="44" y="42" width="312" height="217"><path d="M355.3 42H44v216.9h311.3V42Z" fill="#fff"/></mask><g mask="url(#a)"><path fill-rule="evenodd" clip-rule="evenodd" d="M288.2 248.4h25.1v-30h-25.1v30Z" fill="#C7DEFF"/><path fill-rule="evenodd" clip-rule="evenodd" d="M304.498 238.199c-1.5-3.9-5.9-15.4-4-21.6-2.9.8-3.3.1-5-.1-1.7-.1 0 10.7 2.2 16.4 1.7 4.5 2.1 11.1 2.1 13.6h5.4c.2-1.9.3-5.5-.7-8.3Z" fill="#fff"/><path d="M311.5 214.7v-1.6c0-.7-.6-1.3-1.3-1.3h-22.8c-.7 0-1.3.6-1.3 1.3v1.6" fill="#fff"/><path d="M311.5 214.7v-1.6c0-.7-.6-1.3-1.3-1.3h-22.8c-.7 0-1.3.6-1.3 1.3v1.6M290.2 214.7h21.4c1 0 1.8.8 1.8 1.8v29" stroke="#071F4D" stroke-width="1.096"/><path d="M284.3 245.6v-29c0-1 .8-1.8 1.8-1.8h1.6" fill="#fff"/><path d="M284.3 245.6v-29c0-1 .8-1.8 1.8-1.8h1.6" stroke="#071F4D" stroke-width="1.096"/><path d="M295.402 216.5c-.9 4.2-.4 9.7 2.8 17.5 2.4 5.9 1.9 10.2 1.8 12.3M300.502 216.5c-.9 4.2-.4 9.7 2.8 17.5 2.4 5.9 1.9 10.2 1.8 12.3" stroke="#071F4D"/><path fill-rule="evenodd" clip-rule="evenodd" d="m331 258.4-.3-5.2H88.5l-1.2 5.2H331Z" fill="#C7DEFF"/><path d="M252.9 248.7H331M216.6 258.4H331M47.1 139.3l-2.6 1.5 42.7 117.6h129.2v-6.6" stroke="#071F4D"/><path fill-rule="evenodd" clip-rule="evenodd" d="m247.2 248.6-40.4-111.3H50.5l40.3 111.3h156.4Z" fill="#fff"/><path d="m247.2 248.6-40.4-111.3H50.5l40.3 111.3h156.4Z" stroke="#071F4D"/><path d="m203.2 153.2 32.2 88.7H97.8l-32.3-88.7" stroke="#071F4D"/><path fill-rule="evenodd" clip-rule="evenodd" d="M72.2 146.9c-.77 0-1.4.63-1.4 1.4 0 .77.63 1.4 1.4 1.4.77 0 1.4-.63 1.4-1.4 0-.77-.63-1.4-1.4-1.4ZM79.3 146.9c-.77 0-1.4.63-1.4 1.4 0 .77.63 1.4 1.4 1.4.77 0 1.4-.63 1.4-1.4 0-.77-.63-1.4-1.4-1.4Z" fill="#fff"/><path fill-rule="evenodd" clip-rule="evenodd" d="M263.5 171.2h80.3v-63.7h-80.3v63.7Z" fill="#C7DEFF"/><path fill-rule="evenodd" clip-rule="evenodd" d="M290 143.9h-45.6l12.5 51.3H290v-51.3Z" fill="#071F4D"/><path fill-rule="evenodd" clip-rule="evenodd" d="M286 117.4h-29.3v77.8h92.9v-67.6l-55.9.6-7.7-10.8Z" fill="#00E4E5"/><path d="m332.6 127.6-38.9.6-7.7-10.8h-11.7M308.9 195.2h45.9M250.3 195.2h28.5M287.3 195.2h12.3" stroke="#071F4D"/><path fill-rule="evenodd" clip-rule="evenodd" d="M130.5 211.4H186v-44h-55.5v44Z" fill="#C7DEFF"/><path fill-rule="evenodd" clip-rule="evenodd" d="M148.7 192.5h-31.6l8.7 35.5h22.9v-35.5Z" fill="#071F4D"/><path fill-rule="evenodd" clip-rule="evenodd" d="M145.9 174.2h-20.2V228h64.1v-46.7l-38.6.4-5.3-7.5Z" fill="#006EFF"/><path d="m179 181.3-27.8.4-5.3-7.5h-7.7M176.2 201.7h19.2M163.2 210.7H195M172.1 228h-54.2M184.8 228h8.1M174.9 228h5.4" stroke="#071F4D"/><path fill-rule="evenodd" clip-rule="evenodd" d="m293.2 155.7-6.4 6.3 15.3 15.3 22.7-22.6-6.4-6.4-16.3 16.3-8.9-8.9Z" fill="#fff"/><path d="M57.2 258.4h283.6M345.9 258.4h8.1M55.4 258.4h220.5M160.1 118.8l-1.2 2.7M156.7 127c-.3.8-.7 1.8-1.1 2.8M222 68.5c-1 .2-1.9.5-2.9.8M214.1 70.7c-5.8 1.9-11.3 4.4-16.5 7.4M195.4 79.5c-.9.5-1.7 1.1-2.5 1.6M314.2 98.5c-.6-.8-1.3-1.5-2-2.3M308.9 92.8c-4-4-8.3-7.6-13-10.8M293.9 80.7c-.8-.5-1.7-1.1-2.5-1.6" stroke="#071F4D"/><path fill-rule="evenodd" clip-rule="evenodd" d="M251.296 71.203c-3.6-1.5-18.5-2.9-21.8-1.9-1 5.8 4.9 13.5 4.9 13.5s6-9.9 16.9-11.6Z" fill="#071F4D"/><path fill-rule="evenodd" clip-rule="evenodd" d="M251.3 42.704c-6.5 6.7-7.8 13-8.8 19.3 24.4-1.1 36.3 13 42.8 20 3.2-9.1 7.8-23 7.2-29-7.1-6.4-20-11.7-41.2-10.3Z" fill="#C7DEFF"/><path d="M230 69.3c36.2-3.8 52 21.1 52 21.1s11.4-28.2 10.5-37.4c-7.3-6.5-23.3-12-45.6-10.1-9 6.3-15.6 18.7-16.9 26.4Z" stroke="#071F4D"/><path fill-rule="evenodd" clip-rule="evenodd" d="M161.604 70.7c-6 8.4-9.9 21.9-8.8 33.8 8.4 5.3 32.3 10.5 43.6 11.5 6.1-7.9 15.9-26 15.9-26s-32-4.8-50.7-19.3Z" fill="#C7DEFF"/><path d="M193.103 119.5c4.8-2.7 19.2-29.5 19.2-29.5s-35.8-5.4-53.7-21.8c-9.3 6.1-16.4 24.3-15 40.1 10.6 6.7 45.8 13.3 49.5 11.2Z" stroke="#071F4D"/><path fill-rule="evenodd" clip-rule="evenodd" d="M189.5 111.6c-3 5.2-5.7 7.2-9.8 6.6 12.2 2.6 13.5 1.2 15.6-1.1 2.2-2.4 4.2-6.6 4.2-6.6s-3.1 2.5-10 1.1Z" fill="#071F4D"/><path d="M331 251.8v6.6M77 165.4l-2.7-6.7h7.8M222.8 228.9l2.8 6.6h-7.9" stroke="#071F4D"/></g></svg>