<svg viewBox="0 0 400 300" fill="none" xmlns="http://www.w3.org/2000/svg"><mask id="a" style="mask-type:alpha" maskUnits="userSpaceOnUse" x="94" y="34" width="212" height="233"><path d="M306 34H94v233h212V34Z" fill="#fff"/></mask><g mask="url(#a)"><path fill-rule="evenodd" clip-rule="evenodd" d="M234.427 155.64h38.36V69.6h-38.36v86.04ZM113.326 155.64h121.1V69.6h-121.1v86.04Z" fill="#fff"/><path fill-rule="evenodd" clip-rule="evenodd" d="M130.126 155.354h104.2v-72.95h-104.2v72.95ZM236.369 71.05s0 3.3 1.65 5.05c2.33 2.52 7.38-.2 7.38-.2s-1.75 5.15-1.55 10.19c.29 8.24 6.99 9.51 10 4.75 4.56 4.85 8.94-.29 9.52-2.62 4.27 4.76 9.32-.87 9.32-.87v-6.3l-23.99-12.13-12.33 2.13Z" fill="#C7DEFF"/><path fill-rule="evenodd" clip-rule="evenodd" d="M234.429 155.641h-121.1l-15.93 32.11h121.1l15.93-32.11Z" fill="#fff"/><path d="M234.427 69.6h38.46v86.04M113.326 146.52V69.6h121.1M234.429 155.641l-15.93 32.11h-121.1l15.93-32.11h111.39" stroke="#071F4D"/><path fill-rule="evenodd" clip-rule="evenodd" d="M226.37 159.715H116.82l-12.04 23.86H215l11.37-23.86Z" fill="#006EFF"/><path fill-rule="evenodd" clip-rule="evenodd" d="m288.807 187.751-15.92-32.11h-38.46l16.02 32.11h38.36Z" fill="#fff"/><path d="m238.607 163.981 11.84 23.77h38.36l-15.92-32.11h-38.46" stroke="#071F4D"/><path fill-rule="evenodd" clip-rule="evenodd" d="M207.336 223.734c-3.69-13.77-15.44-23.86-29.33-23.86h-8.65s-27.09 14.94-27.09 33.27c0 18.34 25.44 33.18 25.44 33.18h10.4c13.79-.1 25.44-10.19 29.13-23.87 1.75-12.51 0-18.62.1-18.72Z" fill="#C7DEFF"/><path fill-rule="evenodd" clip-rule="evenodd" d="M243.459 240.421c3.98 0 7.28-3.3 7.28-7.27 0-3.98-3.3-7.28-7.28-7.28h-31.08c-3.98 0-7.28 3.3-7.28 7.28 0 3.97 3.3 7.27 7.28 7.27h31.08Z" fill="#C7DEFF"/><path d="M210.342 223.737c-4.08-13.87-16.9-23.96-32.05-23.96H168.972s-29.62 14.94-29.62 33.37 27.87 33.37 27.87 33.37h11.27c15.05-.1 27.77-10.19 31.75-23.96" stroke="#071F4D"/><path d="M212.379 240.421c-3.98 0-7.28-3.3-7.28-7.27m0 0c0-3.98 3.3-7.28 7.28-7.28" stroke="#fff"/><path fill-rule="evenodd" clip-rule="evenodd" d="M168.781 199.777c-18.45 0-33.41 14.94-33.41 33.37s14.96 33.37 33.41 33.37c18.45 0 33.4-14.94 33.4-33.37s-14.95-33.37-33.4-33.37Z" fill="#006EFF"/><path d="M168.781 199.777c-18.45 0-33.41 14.94-33.41 33.37s14.96 33.37 33.41 33.37c18.45 0 33.4-14.94 33.4-33.37s-14.95-33.37-33.4-33.37Z" stroke="#071F4D"/><path fill-rule="evenodd" clip-rule="evenodd" d="M168.775 209.38c-13.14 0-23.79 10.64-23.79 23.77 0 13.12 10.65 23.76 23.79 23.76 13.14 0 23.8-10.64 23.8-23.76 0-13.13-10.66-23.77-23.8-23.77Z" fill="#00E4E5"/><path d="M162.174 223.736a17.48 17.48 0 0 1 14.76-8.05M159.455 231.982c.1-1.36.29-2.62.68-3.88" stroke="#fff"/><path fill-rule="evenodd" clip-rule="evenodd" d="M173.535 209.87c-1.55-.3-3.11-.49-4.76-.49-13.11 0-23.79 10.67-23.79 23.77 0 13.09 10.68 23.76 23.79 23.76 1.65 0 3.21-.19 4.76-.48-10.88-2.23-19.03-11.84-19.03-23.28 0-11.45 8.15-21.05 19.03-23.28Z" fill="#071F4D"/><path d="M219.957 225.774h23.6c4.08 0 7.38 3.3 7.38 7.37m0 0c0 4.08-3.3 7.37-7.38 7.37h-20.1M212.091 225.774h3.3" stroke="#071F4D"/><path d="m248.894 34.485-.19 18.24c0 4.07-.39 5.23-2.14 6.79-8.15 6.88-10.97 9.02-9.22 12.9 1.45 3.2 6.79 2.23 9.61-1.55-.39 4.56-5.24 15.32-.58 18.04 4.37 2.52 6.89-3.49 6.89-3.49s.49 3.49 4.47 3.49c3.69 0 5.24-4.75 5.24-4.75s2.14 3.49 6.22 1.35c3.11-1.55 5.44-7.08 5.44-26.67v-24.35" fill="#fff"/><path d="m248.894 34.485-.19 18.24c0 4.07-.39 5.23-2.14 6.79-8.15 6.88-10.97 9.02-9.22 12.9 1.45 3.2 6.79 2.23 9.61-1.55-.39 4.56-5.24 15.32-.58 18.04 4.37 2.52 6.89-3.49 6.89-3.49s.49 3.49 4.47 3.49c3.69 0 5.24-4.75 5.24-4.75s2.14 3.49 6.22 1.35c3.11-1.55 5.44-7.08 5.44-26.67v-24.35" stroke="#071F4D"/><path d="M255.307 75.71s-.39 5.43-2.04 9.6l2.04-9.6Z" fill="#fff"/><path d="M255.307 75.71s-.39 5.43-2.04 9.6" stroke="#071F4D"/><path d="M264.921 75.323s-.68 5.24-2.04 8.63l2.04-8.63Z" fill="#fff"/><path d="M264.921 75.323s-.68 5.24-2.04 8.63M147.801 34.485v34.92M121.775 34.485v34.92M102.546 204.724v13.97M102.546 222.379v.87M102.546 197.934v3.49M115.268 206.955v26.29M115.268 239.451v5.34M244.43 197.643v11.93M244.43 213.939v3.49M270.359 201.232v33.76M115.369 47.774h-13.6M94.486 47.774h3.4M241.516 47.774h-84.1M280.168 47.774h25.35" stroke="#071F4D"/><path fill-rule="evenodd" clip-rule="evenodd" d="m282.497 183.575-12.04-23.86h-27.29l11.36 23.86h27.97Z" fill="#00E4E5"/><path d="M234.427 134.88V69.6M234.427 140.412v7.66" stroke="#071F4D"/><path d="M220.831 228.684h16.99M240.934 228.684h2.43" stroke="#fff"/><path fill-rule="evenodd" clip-rule="evenodd" d="m223.842 187.462 21.46-.2-10.97-20.66-10.49 20.86Z" fill="#071F4D"/></g></svg>