<svg viewBox="0 0 400 300" fill="none" xmlns="http://www.w3.org/2000/svg"><path fill-rule="evenodd" clip-rule="evenodd" d="M290.7 38.4h-50.3v63.5h50.3V38.4Zm-16 47.5V54.4h-18.3v31.5h18.3ZM199 71.3V38.7h-16v48.6h32v14.6h16V38.7h-16v32.6h-16ZM331.7 87.3v14.6h16V38.7h-16v32.6h-16V38.7h-16v48.6h32Z" fill="#DEEBFC"/><path d="M324.3 119.5h24.1v-17.4h-24.1" stroke="#071F4D"/><path fill-rule="evenodd" clip-rule="evenodd" d="M218.5 120H69.4v11.5h130.5l18.6-11.5ZM231.5 131.5h117.2V120H231.5v11.5Z" fill="#C7DEFF"/><path fill-rule="evenodd" clip-rule="evenodd" d="M348.4 119.5v-17.4h-24.1v17.4h24.1Z" fill="#071F4D"/><path d="M159.6 119.5h164.9V102H169.2M114.8 102H57.9v17.5h39.6" stroke="#071F4D"/><path d="M242.5 223.2V98.7c0-3.6 2.9-6.6 6.6-6.6m0 0c3.6 0 6.6 2.9 6.6 6.6v2.8M243.1 153.9h53.1M243.1 193.9h53.1M296.5 219.1V98.8c0-3.6 2.9-6.6 6.6-6.6 3.6 0 6.6 2.9 6.6 6.6v2.8" stroke="#071F4D"/><path fill-rule="evenodd" clip-rule="evenodd" d="m140.5 96.4 15.9 12.9 6.6-9.4-12.2-11.2-8.2 5.8-2.1 1.9Z" fill="#C7DEFF"/><path d="m170.2 93.5-4.2 4-3-2.4" stroke="#071F4D"/><path fill-rule="evenodd" clip-rule="evenodd" d="M150.2 87.1s3.7-5.3 8.1-3.9c2.7.8 1.7-1.6 1.7-1.6l-9.2-5.6-3.9 8.5 3.3 2.6Z" fill="#C7DEFF"/><path d="m148 85.5 13 12.1" stroke="#071F4D"/><path fill-rule="evenodd" clip-rule="evenodd" d="M179.202 87.001c.9-.1 1.7-.6 2.3-1.4.6-.6.9-1.4.8-1.9-.2-1.1-38.4-36-39.6-37.1-.7-.6-2-.7-3.3 0-.7.3-1.3 1-1.8 1.9 0 0-3 .4 1.3 11.1 4.3 10.6 6.6 19.1 6.6 19.1s-1.8 4.1-2.8 6.6c-.9 1.7 5.8 2.1 8.4-4.4 4.4.8 13.6 3.4 19 12.6v.1c1.1 1.9 1.9 1.2 2.4.9 3.2-2.4 7.2-5.8 6.7-7.5Z" fill="#00E4E5"/><path fill-rule="evenodd" clip-rule="evenodd" d="M182.3 83.802c-.2-1.1-38.4-36-39.6-37.1-.7-.6-2-.7-3.3 0l42.2 39c.5-.7.8-1.4.7-1.9Z" fill="#071F4D"/><path d="M137.8 48.4 179.2 87M140.4 63.2l5.2-3.9M143.6 72.4s3.2-2.1 6.8-2.3M144.8 75.903c.6-.2 5.4-1.8 7.7-1.5M142.3 91.6l4.2-3.8M159.9 103.9l5-6.5" stroke="#071F4D"/><path fill-rule="evenodd" clip-rule="evenodd" d="m206.1 129.6 11.7 16.7 9-7.2-8.7-14.1-9.5 3.3-2.5 1.3Z" fill="#C7DEFF"/><path d="m235.4 134.9-5.2 2.7-2.2-3.2" stroke="#071F4D"/><path fill-rule="evenodd" clip-rule="evenodd" d="M217.9 123.3s4.9-4.1 8.8-1.6c2.4 1.5 2.1-1.1 2.1-1.1l-7.3-7.9-6.1 7.2 2.5 3.4Z" fill="#C7DEFF"/><path d="m216.2 121.1 9.2 15.2" stroke="#071F4D"/><path fill-rule="evenodd" clip-rule="evenodd" d="M237.397 136.399c3.7-1.4 8.5-3.7 8.5-5.4.8.2 1.8-.1 2.6-.7.7-.4 1.3-1 1.3-1.6.1-1.2-27.2-45.1-28.1-46.5-.5-.7-1.8-1.1-3.2-.8-.8.2-1.6.6-2.3 1.4 0 0-3-.4-1.8 11 1.3 11.4 1.2 20.2 1.2 20.2s-2.8 3.5-4.4 5.6c-1.3 1.4 5 3.5 9.3-2 4.1 1.9 12.2 6.9 14.9 17.2v.1c.5 2.1 1.5 1.7 2 1.5Z" fill="#00E4E5"/><path fill-rule="evenodd" clip-rule="evenodd" d="M249.8 128.699c.1-1.2-27.2-45.1-28.1-46.5-.5-.7-1.8-1.1-3.2-.8l30 49c.6-.5 1.2-1.1 1.3-1.7Z" fill="#071F4D"/><path d="m216.5 82.6 29.4 48.4M214.9 97.6l6.1-2.3M215.5 107.395s3.7-1.2 7.2-.4M215.7 111.098c.6 0 5.7-.3 7.8.7M209.1 125.5l5-2.5M222.7 142.1l6.5-4.9" stroke="#071F4D"/><path fill-rule="evenodd" clip-rule="evenodd" d="M208.2 122c-2.5 1-29.9 15.6-47.1 28.8-17.2 13.2-27 23.3-30.3 30.3-1.8 3.6-2.4 4.4-2.4 4.4-1.3-3.4-3.6-10.1-3.9-12.4-.4-4.1 0-9 3.3-14.3 3.3-5.3 27.4-43.9 32.4-51.9-2.4-1.9-8.2-6.8-19.8-16.9-3.4 2.8-35.6 29.9-44.6 38.5-9 8.6-10.8 15.7-10.8 29.3v63.6s25.2 3.9 44.3 2.1c19.1-1.8 44.1-4.1 44.1-4.1s-2.6-29.6 2.9-36.1c5.4-6.5 41.6-34.2 45.5-37.5-3.8-7.5-9-15.8-13.6-23.8Z" fill="#006EFF"/><path d="M154.103 116.7c-9 14.4-23.8 38.1-26.3 42.1-3.3 5.3-3.7 10.2-3.3 14.3M85.1 215.7v-57.9c0-13.6 1.8-20.8 10.8-29.3 1.8-1.7 4.5-4.2 7.8-7.1M197.402 165.1c-9.5 7.6-18.6 15.2-21.1 18.2-5.4 6.5-2.9 36.1-2.9 36.1M123.4 218.3s4.2-30.3 7.5-37.2c3.3-6.9 13-17.1 30.3-30.3 10.5-8.1 24.9-16.6 35-22.3" stroke="#071F4D"/><path fill-rule="evenodd" clip-rule="evenodd" d="M173.1 256.4v-8h-68V264s14.2-5.5 31.1-3.8c29.1 2.9 36.8-3.8 36.8-3.8h.1ZM271.5 255.1h-31.1v9.2s6.5-5.5 14.2-3.8c13.4 2.9 16.9-3.8 16.9-3.8v-1.6Z" fill="#C7DEFF"/><path d="M105.2 245h51.9M240.7 251.7h30.6M165.6 245h7.2M56.7 219.6c10.4 0 17.4.5 23.2 1.1 11.4 1.3 18.4 3.1 39 3.1 31.1 0 31.1-4.3 62.2-4.3s31.2 4.3 51.5 4.3 27.7-5.8 51.5-5.8c15.1 0 20.4 5.8 51.5 5.8" stroke="#071F4D"/><path d="M284.1 218c16.2 0 21.5 5.8 51.5 5.8" stroke="#071F4D"/><path d="M159.5 203.5v6.2M202.4 146.7l-31.6 25.9c-7.1 5.9-11.3 14.7-11.3 23.9M206.7 143.2l2.7-2.3M138.098 118.6l-19.2 24c-7.5 9.4-11.3 21.3-10.6 33.3l2.4 38.5M143.6 111.7l3.2-4" stroke="#DEEBFC"/><path d="m141.8 178.4 6-1.1M94.5 140.6l5.4-4" stroke="#071F4D"/><path fill-rule="evenodd" clip-rule="evenodd" d="M135.2 236.099c7.395-.581 13.632-1.202 19.262-1.762 19.569-1.948 31.803-3.166 59.838.562 24.429 3.262 31.821 1.804 43.661-.53 3.766-.743 7.982-1.574 13.339-2.37 14.976-2.226 25.902.28 35.11 2.393 4.442 1.019 8.485 1.946 12.39 2.207 12 .7 16.8-.3 16.8-.3v-9.6c-.1.04-4.95.99-16.8.3-3.972-.232-8.097-1.176-12.641-2.215-9.183-2.101-20.074-4.593-34.859-2.385-5.305.792-9.493 1.619-13.239 2.358-11.858 2.342-19.291 3.809-43.761.542-28.035-3.728-40.269-2.51-59.838-.562-5.63.56-11.867 1.181-19.262 1.762-15.1 1.2-36.9 1.3-60-2.2-10.8-1.6-18.7-1.1-18.7-1.1v9.6s7.9-.5 18.7 1.1c23.1 3.5 44.9 3.4 60 2.2Z" fill="#C7DEFF"/></svg>