<svg
  viewBox="0 0 400 300"
  fill="none"
  xmlns="http://www.w3.org/2000/svg"
><mask id="a" style="mask-type:alpha" maskUnits="userSpaceOnUse" x="47" y="38" width="307" height="224"><path d="M353.3 38H47.5v223.8h305.8V38Z" fill="#fff"/></mask><g mask="url(#a)"><path fill-rule="evenodd" clip-rule="evenodd" d="M299.2 200.6H61.6v5.1h240.3l-2.7-5.1Z" fill="#C7DEFF"/><path d="m308.9 185.8-6.5 20H183.7M332.3 127.6h10.6l-5 16.7-14.8-.1-7.2 21.1M328.8 127.4l13.6-39.6M307.6 166 337 84.7H180.6l-9.8 26.9h-10.5M296.6 196l4.3-11.8M157.2 149.2l6.4-17.7" stroke="#071F4D"/><path fill-rule="evenodd" clip-rule="evenodd" d="M324.8 93.1H188.5l-34.8 95.8h136.4l34.7-95.8ZM169.9 166.2l5-13.6-5 13.6Z" fill="#fff"/><path d="m169.9 166.2 5-13.6" stroke="#071F4D"/><path fill-rule="evenodd" clip-rule="evenodd" d="M324.8 93.1H188.5l-4 11.7h135.8l4.5-11.7Z" fill="#006EFF"/><path fill-rule="evenodd" clip-rule="evenodd" d="M102.6 159.5h38.3l2.7 36.6h-38.4c-10.1 0-20.9-8.2-20.9-18.3 0-10.1 8.2-18.3 18.3-18.3Z" fill="#DEEBFC"/><path fill-rule="evenodd" clip-rule="evenodd" d="M84.3 174.102c2.5 3.4 10 5 17.9 2.8 16.6-6.5 23.8-3.9 23.8-3.9s.5-3.4 1.3-5c-5.8-3-15.4.3-26.1 3.1-10.7 2.8-15.8-2.5-15.8-2.5-.4 0-1.1 2.8-1.1 5.5Z" fill="#fff"/><path d="M96.5 194.2c-7.2-3.3-12.2-10.5-12.2-19m0 0c0-11.5 9.3-20.8 20.8-20.8h29.4" stroke="#071F4D"/><path fill-rule="evenodd" clip-rule="evenodd" d="M140.3 195.1c-8.4-2.7-14.5-10.6-14.5-19.8l14.5 19.8Zm-14.5-19.8c0-11.5 9.3-20.8 20.8-20.8l-20.8 20.8Zm20.8-20.8c11.5 0 20.8 9.3 20.8 20.8l-20.8-20.8Zm20.8 20.8c0 8.4-5 15.6-12.1 18.9l12.1-18.9Z" fill="#fff"/><path d="M140.3 195.1c-8.4-2.7-14.5-10.6-14.5-19.8m0 0c0-11.5 9.3-20.8 20.8-20.8m0 0c11.5 0 20.8 9.3 20.8 20.8m0 0c0 8.4-5 15.6-12.1 18.9" stroke="#071F4D"/><path fill-rule="evenodd" clip-rule="evenodd" d="M161.5 177.2c0-7.7-6.3-14-14-14s-14 6.3-14 14c0 5.8 3.5 10.8 8.6 12.9.1 0 5.8 1.6 10.7 0 5.3-1.7 8.7-7.1 8.7-12.9Z" fill="#00E4E5"/><path d="M140.5 190.1c-5.8-2.4-9.9-8.2-9.9-14.9 0-8.9 7.2-16.1 16.1-16.1 8.9 0 16.1 7.2 16.1 16.1 0 6.8-4.2 12.5-10.1 14.9M88.4 170.604c2.9 1.3 7.7 2.6 13.6.3 14.7-5.7 22.3-4.3 24.6-3.5M84.5 174.599s5.9 6.5 19 1.7c9.2-3.4 15.3-3.9 18.8-3.8" stroke="#071F4D"/><path fill-rule="evenodd" clip-rule="evenodd" d="M340.6 112.3h-55.2l-2.7 6.2H338l2.6-6.2Z" fill="#071F4D"/><path fill-rule="evenodd" clip-rule="evenodd" d="M236.8 117.9c-16.13 0-29.2 13.07-29.2 29.2s13.07 29.2 29.2 29.2 29.2-13.07 29.2-29.2-13.07-29.2-29.2-29.2Z" fill="#00E4E5"/><path d="M265 123.3c13.1 13.1 13.1 34.4 0 47.6M306 205.9h19.2M61.7 205.9h32.9M181.2 196.2h115.2M47.5 205.9h10v-9.7h73.8" stroke="#071F4D"/><path fill-rule="evenodd" clip-rule="evenodd" d="M146.7 179.2c-2.49 0-4.5 2.01-4.5 4.5s2.01 4.5 4.5 4.5 4.5-2.01 4.5-4.5-2.01-4.5-4.5-4.5Z" fill="#071F4D"/><path fill-rule="evenodd" clip-rule="evenodd" d="M169.5 196.2c3.9 0 7.1 3.2 7.1 7.1 0 3.9-3.2 7.1-7.1 7.1H144c-2.1 0-3.9 1.7-3.9 3.9v1c0 2.1 1.7 3.9 3.9 3.9h48c5.1 0 9.2 4.1 9.2 9.2s-4.1 9.3-9.2 9.2h-33.8c-2.3 0-4.1 1.8-4.1 4.1s1.8 4.1 4.1 4.1h4.2c4.4 0 8 3.6 8 8s-3.6 8-8 8H111c-3.7 0-6.8-3-6.8-6.8 0-3.7 3-6.8 6.8-6.8h.3c2.3 0 4.1-1.8 4.1-4.1s-1.8-4.1-4.1-4.1H79c-4.5 0-8.1-3.6-8.1-8.1s3.6-8.1 8.1-8.1h37.7c2.1 0 3.9-1.7 3.9-3.9 0-2.1-1.7-3.9-3.9-3.9h-7.9c-4.4 0-7.9-3.5-7.9-7.9s3.5-7.9 7.9-7.9h30.4c2.2 0 3.9-1.8 3.9-3.9V187c0-1.9 1.6-3.5 3.5-3.5s3.5 1.6 3.5 3.5v5.3c0 2.2 1.8 3.9 3.9 3.9h15.5Z" fill="#006EFF"/><path d="m227.8 138.5 18.7 18.7M227.8 157.2l18.7-18.7" stroke="#fff" stroke-width="6"/><path fill-rule="evenodd" clip-rule="evenodd" d="M194.8 96.9c-.99 0-1.8.81-1.8 1.8s.81 1.8 1.8 1.8 1.8-.81 1.8-1.8-.81-1.8-1.8-1.8ZM202.9 96.9c-.99 0-1.8.81-1.8 1.8s.81 1.8 1.8 1.8 1.8-.81 1.8-1.8-.81-1.8-1.8-1.8Z" fill="#fff"/><path d="m291.7 184.3-1.6 4.6h-121M298.1 166.7l22.5-61.9" stroke="#071F4D"/><path fill-rule="evenodd" clip-rule="evenodd" d="m193 134.1 2.2-5.1h-19.4l-2.3 5.1H193ZM313.2 123.5l2.2-5.1h-24.5l-2.3 5.1h24.6Z" fill="#DEEBFC"/><path d="m164.5 159.2 19.8-54.6" stroke="#071F4D"/><path fill-rule="evenodd" clip-rule="evenodd" d="M199.6 119.8h-53.2l-4.4 9.3h53.2l4.4-9.3Z" fill="#00E4E5"/><path d="M151.3 129.1H142l4.4-9.3h16.9" stroke="#071F4D"/><path fill-rule="evenodd" clip-rule="evenodd" d="M353.3 169.4h-67.4l-4.8 12.2h67.3l4.9-12.2Z" fill="#006EFF"/><path d="M332.4 169.4h20.9l-4.9 12.2h-39.7M242.7 235.5v-4.8c0-3.8 3.1-7 7-7h20.2c3.8 0 7 3.1 7 7" stroke="#071F4D"/><path d="M261.1 235.5v-4.8c0-3.8 3.1-7 7-7h13.7c3.8 0 7 3.1 7 7v4.8M242.6 230.7h13.7M235.2 237.7h63.3M224 237.7h6.7" stroke="#071F4D"/><path fill-rule="evenodd" clip-rule="evenodd" d="M324.1 141.3H335l3.3-10.7h-10.2l-4 10.7Z" fill="#C7DEFF"/><path fill-rule="evenodd" clip-rule="evenodd" d="M288.3 230.4c0-3.6-2.9-6.5-6.5-6.5h-14.2c-3.6 0-6.5 2.9-6.5 6.5v5.3h27.2v-5.3Z" fill="#071F4D"/><path d="M80.4 228.5H83M87.7 228.5h19.2M146.3 195.8v2c0 3.6-2.9 6.6-6.6 6.6H138M133.4 204.3h1.5M154 249.9h9.4" stroke="#DEEBFC"/><path d="m299.4 141.9 5.1-13.9" stroke="#071F4D"/></g></svg>
