<svg xmlns="http://www.w3.org/2000/svg" width="351" height="249" viewBox="0 0 351 249">
    <g fill="none" fill-rule="evenodd">
        <path fill="#B5BEC8" d="M206.284 130.796v62.178H82.731v-94.27h60.172s-4.813 8.826-.401 12.035c4.413 3.21-18.052 4.814-21.662 15.244-3.61 10.43-18.854 33.696 17.65 47.736 36.505 14.04 43.725-21.261 44.528-27.278.802-6.017 23.266-15.645 23.266-15.645"/>
        <path fill="#006AFF" d="M280.11 109.106l-19.438 41.925 72.799 63.27.952-42.879-33.916-30.912 11.62-23.4z"/>
        <path fill="#006AFF" d="M297.262 113.298L245.808 230.31h36.703l47.262-109.77"/>
        <path fill="#00BAFF" d="M285.828 99.196c-1.144-8.766-12.387-37.924-12.387-37.924l20.2-20.581s9.338 13.911 10.863 23.059"/>
        <path fill="#00BAFF" d="M319.368 123.59l.763 25.536c20.2 0 28.966-.381 28.966-.381l.382-70.512s3.049-39.271-17.533-39.639c-21.344-.38-51.454 70.13-52.217 72.036 0 0 19.439 12.197 35.065 12.578"/>
        <path stroke="#18263C" stroke-linecap="round" stroke-linejoin="round" stroke-width=".983" d="M159.751 114.75l18.854-6.819"/>
        <path fill="#18263C" d="M152.53 109.937l-2.005 8.023-30.487 10.028s-1.605-7.22 13.238-16.045c5.655-3.363 2.31-5.127 1.203-6.419-2.407-2.808.802-4.814 5.616-6.82 4.803-2 0-4.01-.802-7.822-.802-3.81 6.418-13.037 15.244-15.043 8.824-2.005 22.299-1.088 20.458 13.64a153.933 153.933 0 0 1-.803 5.615s-.802-2.807-4.01-1.604c-2.598.974-1.204 2.808-4.815 0-3.209-1.605-7.22-5.215-6.82-10.029-2.406 3.61-4.412 7.22-9.225 8.826-1.204 14.44 3.209 17.65 3.209 17.65"/>
        <path fill="#FFC000" d="M119.637 127.587l16.046-5.215s5.215 23.668 24.47 17.25c20.097-6.7 13.237-29.284 13.237-29.284l7.22-3.209-5.615-3.61 16.447-19.657s35.174 17.23 36.102 32.092c.803 12.837-53.352 32.092-53.352 32.092l-7.22 26.876s-23.267 14.842-42.12-4.814c-19.464-20.291-5.215-42.52-5.215-42.52"/>
        <path fill="#00D0B6" d="M199.38 21.25a4.144 4.144 0 1 0 5.125-6.515 4.144 4.144 0 0 0-5.125 6.515"/>
        <path fill="#FFC200" d="M187.579 21.271a4.144 4.144 0 1 0 5.124-6.515 4.144 4.144 0 0 0-5.124 6.515"/>
        <path fill="#FF0E23" d="M175.284 21.524a4.144 4.144 0 1 0 5.124-6.515 4.144 4.144 0 0 0-5.124 6.515"/>
        <path stroke="#18263C" stroke-linecap="round" stroke-linejoin="round" stroke-width=".983" d="M231.88 186.458l-5.18 7.045-1.27-8.548"/>
        <path fill="#FFC200" d="M239.69 133.584l5.865 1.544-12.99 49.358-5.865-1.544z"/>
        <path stroke="#18263C" stroke-linecap="round" stroke-linejoin="round" stroke-width=".983" d="M232.327 169.71l9.292-34.542"/>
        <path fill="#D6DAE1" d="M82.33 243.518v-50.544h50.544z"/>
        <path stroke="#18263C" stroke-linecap="round" stroke-linejoin="round" stroke-width=".983" d="M251.613 27.702H172.99v24.871M349.894 172.402V26.345h-16.108M205.883 172.515h62.98M167.373 100.31s6.82-.402 6.419-4.815c-.402-4.412-5.617-.4-5.617-.4M149.322 91.885s-1.745 19.005 6.819 19.255"/>
        <path stroke="#18263C" stroke-linecap="round" stroke-linejoin="round" stroke-width=".983" d="M120.44 127.587l30.085-9.627 2.005-7.622M197.459 117.559l-22.866-14.04 16.849-19.256s38.51 20.459 36.103 32.894c-2.407 12.436-54.155 31.29-54.155 31.29l-5.616 24.068"/>
        <path stroke="#18263C" stroke-linecap="round" stroke-linejoin="round" stroke-width=".983" d="M137.149 125.915s5.39 18.71 22.832 13.636c17.443-5.074 14.271-26.004 14.271-26.004M158.548 83.06c-.803.4-2.006 6.82-11.633 10.028M167.774 95.094s-7.622-3.61-8.424-8.424M178.204 99.106s-9.066-10.439-11.232-14.863c-2.165-4.425-12.035-4.793-12.296-10.134-.141-2.888 7.204 1.581 8.979-1.746 1.983-3.716-6.56-14.566-2.982-15.523 3.579-.957 10.075 12.317 8.318 13.441-1.757 1.125-6.393-16.387-2.963-17.725 3.43-1.338 9.442 15.198 8.066 16.174-1.376.976-5.269-14.632-2.22-15.82 3.05-1.19 8.997 14.054 7.62 15.03-1.375.976-4.175-13.764-2.006-14.147 4.109-.724 17.006 36.838 17.006 36.838"/>
        <path fill="#00D0B6" d="M227.144 81.456c-13.762 4.294-54.117 16.487-55.24 16.655l-1.133-2.838c.823-.782 32.087-24.16 44.74-32.671l11.633 18.854z"/>
        <path fill="#006AFF" d="M238.517 61.561c7.282 12.614 8.758 25.397 3.294 28.551-5.463 3.155-15.795-4.514-23.078-17.129-7.283-12.614-8.758-25.397-3.295-28.55 5.463-3.155 15.796 4.514 23.08 17.128"/>
        <path stroke="#18263C" stroke-linecap="round" stroke-linejoin="round" stroke-width=".983" d="M330.803 38.975c-20.201-1.143-50.311 69.75-51.073 71.655 0 0 19.438 12.197 35.065 12.578"/>
        <path stroke="#18263C" stroke-linecap="round" stroke-linejoin="round" stroke-width=".983" d="M319.75 61.844l.38 87.281c18.677 0 28.205-.38 28.205-.38"/>
        <path stroke="#FFF" stroke-linecap="round" stroke-linejoin="round" stroke-width=".983" d="M293.45 122.065L245.428 230.69h36.703l35.017-81.398"/>
        <path stroke="#18263C" stroke-linecap="round" stroke-linejoin="round" stroke-width=".983" d="M277.443 114.06l-16.39 36.59 13.34 12.197M304.504 189.146L333.47 214.3l.762-16.389M310.602 11.533l1.143 18.676 4.574-.762s1.525 6.86 6.86 5.717M285.065 94.622c-2.286-7.623-11.434-33.16-11.434-33.16l20.2-20.58s6.861 12.958 9.91 19.818"/>
        <path fill="#18263C" d="M331.946 14.201C335.376-.282 320.131-.282 309.078.1c-3.05 7.623 1.143 12.577 1.143 12.577s8.385-1.524 9.529-.38l7.241 7.24s.363-2.11 1.144-4.192c1.143-3.049 3.811-1.143 3.811-1.143"/>
        <path fill="#FFC200" d="M21.814 220.738c-.635-5.248 3.104-10.017 8.352-10.653 5.248-.635 10.017 3.104 10.653 8.352a9.571 9.571 0 0 1-8.352 10.653c-5.248.635-10.017-3.104-10.653-8.352"/>
        <path fill="#00BAFF" d="M190.98 237.378a9.571 9.571 0 0 1 8.352-10.653c5.248-.636 10.018 3.103 10.653 8.351.636 5.248-3.104 10.017-8.351 10.653-5.248.636-10.018-3.104-10.653-8.351"/>
        <path fill="#00D0B6" d="M248.324 72.387l-19.734-9.866 9.866-19.734 19.734 9.867z"/>
        <path fill="#FF0E23" d="M271.653 73.96l-2.515 21.92-21.92-2.516z"/>
        <path fill="#18263C" d="M318.987 19.918a1.906 1.906 0 1 1-3.81 0 1.906 1.906 0 0 1 3.81 0M154.218 97.986a1.46 1.46 0 1 1-2.062-2.064 1.46 1.46 0 0 1 2.062 2.064M163.106 97.647a1.458 1.458 0 1 1-2.917.001 1.458 1.458 0 0 1 2.917-.001"/>
        <path stroke="#18263C" stroke-linecap="round" stroke-linejoin="round" stroke-width=".983" d="M293.542 40.417c.74.908-1.023-1.777-6.742-9.32-4.638-6.117-10.353-15.008-14.343-17.66-3.777-2.509 1.24 11.29 2.514 10.693 2.448-1.149-8.56-10.843-11.123-9.076-2.665 1.84 6.642 14.329 8.333 12.08 1.691-2.246-12.726-9.05-14.417-6.802-2.089 2.775 10.668 11.55 12.246 9.921 1.578-1.628-11.804-5.364-14.404 1.833-1.09 3.016 15.379-.782 12.957 4.69-1.8 4.065-14.57-4.385-12.88.119.644 1.717 7.223 7.814 18.658 9.82 6.255 1.097 7.441 6.006 7.441 6.006"/>
        <path fill="#18263C" d="M184.221 144.435l-11.232 4.413-6.418 26.876s19.255-10.028 17.65-31.289"/>
        <path stroke="#18263C" stroke-linecap="round" stroke-linejoin="round" stroke-width=".983" d="M156.943 105.123l-2.406.401 2.005-8.825"/>
        <path fill="#18263C" d="M173.39 97.501l-2.005 12.837-7.622 2.808v-5.215s3.209-5.616 3.61-7.22c0 0 2.15-.56 2.808-.803.867-.32 3.21-2.407 3.21-2.407"/>
        <path stroke="#18263C" stroke-linecap="round" stroke-linejoin="round" stroke-width=".983" d="M196.657 93.089l-15.244 18.853M184.24 145.307c-.039 19.275-15.695 34.869-34.97 34.83-19.274-.039-34.868-15.694-34.83-34.969a34.743 34.743 0 0 1 3.953-16.078"/>
        <path stroke="#18263C" stroke-linecap="round" stroke-linejoin="round" stroke-width=".983" d="M138.488 170.51s-32.894 27.278-34.9 73.41c0 0-15.644-43.325-28.882-42.121-13.238 1.203-.802 43.324-.802 43.324s-12.436-26.476-28.883-30.087M295.737 51.934l-21.725 21.344M346.601 138.207l-30.454-.269M293.07 48.885a1.525 1.525 0 1 1-3.05 0 1.525 1.525 0 0 1 3.05 0zM326.61 143.409a1.525 1.525 0 1 1-3.05 0 1.525 1.525 0 0 1 3.05 0zM190.64 95.897a1.605 1.605 0 1 1-3.21 0 1.605 1.605 0 0 1 3.21 0zM349.097 60.32s-1.143-12.578-9.91-19.632c-10.011-8.056-9.909-15.434-9.909-15.434v-3.43s4.574-2.287 3.812-5.717c-.763-3.43-4.193-3.811-5.337-1.143M283.922 147.982s10.291 15.246 3.05 28.586c-7.727 14.231-21.345 13.34-21.345 13.34M271.725 132.355s6.861 5.718 7.242 18.295"/>
        <path fill="#00D0B6" d="M240.313 234.547l32.957.336-1.296 8.499-39.546.12 8.616-4.914z"/>
        <path stroke="#18263C" stroke-linecap="round" stroke-linejoin="round" stroke-width=".983" d="M232.655 246.152l38.69-.277M238.485 235.448s-.75-8.597-4.512-6.057c-3.808 2.57 2.836 7.016 2.836 7.016s-8.942-5.487-9.7-.865c-.759 4.622 9.23 2.18 9.23 2.18M246.558 236.375l-1.363 3.074 1.958 1.948-2.404 1.63M246.189 230.69l-1.525 3.43 28.586.382.762-4.193z"/>
        <path fill="#00D0B6" d="M337.872 220.242l.172-31.859 8.913 1.071-.227 38.783-4.808-8.677z"/>
        <path stroke="#18263C" stroke-linecap="round" stroke-linejoin="round" stroke-width=".983" d="M349.382 228.044l.071-38.136M338.75 222.08s-8.605.644-6.113 4.437c2.524 3.84 7.052-2.748 7.052-2.748s-5.598 8.872-.986 9.688c4.613.817 2.295-9.202 2.295-9.202M339.778 214.02l3.057 1.402 1.972-1.935 1.6 2.425M333.47 214.301l4.193 3.43.456-20.955M323.185 149.84s-.116 10.107-.558 14.766c-.442 4.66-7.894 10.405-7.536 13.13.357 2.725 5.874-3.82 8.568-1.457 3.009 2.639-.951 15.149 2.551 14.801 3.503-.349 4.829-14.328 2.89-14.739-1.938-.41-.19 16.713 3.307 16.753 3.498.04 3.3-16.677 1.75-17.083-1.55-.407.22 14.774 3.33 14.809 3.109.035 3.287-15.51 1.736-15.917-1.55-.407.901 13.637 2.958 13.25 3.896-.733 2.773-38.451 2.773-38.451"/>
        <path stroke="#FFF" stroke-linecap="round" stroke-linejoin="round" stroke-width=".983" d="M221.142 108.733s-11.649 2.006-6.032 16.848"/>
        <path stroke="#18263C" stroke-linecap="round" stroke-linejoin="round" stroke-width=".983" d="M132.474 97.902H82.732V243.518M205.482 140.022v52.952h-39.714M288.028 27.27h19.875M1 247.74h347.576"/>
        <path fill="#FFF" d="M93.44 118.324l9.245 15.252 5.546-12.016zM101.76 179.103a4.853 4.853 0 1 1-9.706.001 4.853 4.853 0 0 1 9.706 0"/>
        <path stroke="#18263C" stroke-linecap="round" stroke-linejoin="round" stroke-width=".983" d="M153.065 195.512s22.186 5.546 38.825 29.119"/>
    </g>
</svg>
